<svg width="400" height="400" viewBox="0 0 400 400" fill="none" xmlns="http://www.w3.org/2000/svg">
<path d="M263.155 161.605L186.619 238.141L162.195 213.716L238.73 137.181L263.155 161.605ZM328.69 205.326L241.247 292.769C237.891 296.125 233.634 299.201 228.476 301.998C223.318 304.794 217.693 306.566 211.603 307.311C205.512 307.933 199.173 307.249 192.586 305.261C185.998 303.147 179.566 298.952 173.289 292.676L85.8463 205.233C84.1683 203.555 82.8943 201.66 82.0242 199.547C81.1541 197.434 80.688 195.29 80.6259 193.114C80.6259 190.877 81.0609 188.702 81.931 186.589C82.8011 184.476 84.1062 182.549 85.8463 180.809L195.009 71.646L219.247 95.8838L122.11 193.021L197.526 268.438C200.696 271.607 203.959 273.192 207.315 273.192C210.671 273.192 213.964 271.576 217.196 268.345L304.452 181.089L328.69 205.326Z" fill="url(#paint0_linear_111_2)"/>
<defs>
<linearGradient id="paint0_linear_111_2" x1="96.3363" y1="242.758" x2="373.168" y2="218.752" gradientUnits="userSpaceOnUse">
<stop offset="0.455" stop-color="#00A3FF"/>
<stop offset="1" stop-color="#09FFF0"/>
</linearGradient>
</defs>
</svg>
